<svg width="22" height="20" viewBox="0 0 22 20" fill="none" xmlns="http://www.w3.org/2000/svg">
<path d="M10.9999 1.49999C9.80641 1.49999 8.66182 1.97409 7.8179 2.81801C6.97399 3.66192 6.49989 4.80651 6.49989 5.99999C6.49989 6.1989 6.42087 6.38966 6.28021 6.53031C6.13956 6.67097 5.9488 6.74999 5.74988 6.74999H5.37488C4.47978 6.74999 3.62133 7.10556 2.9884 7.7385C2.35546 8.37144 1.99988 9.22988 1.99988 10.125C1.99988 11.0201 2.35546 11.8785 2.9884 12.5115C3.62133 13.1444 4.47978 13.5 5.37488 13.5H6.53289C6.57886 14.0075 6.67176 14.5096 6.81038 15H5.37488C4.10875 15.0027 2.89123 14.5127 1.97996 13.6336C1.06869 12.7546 0.535176 11.5555 0.492301 10.2901C0.449425 9.02466 0.900556 7.79221 1.75023 6.8535C2.59991 5.9148 3.78147 5.3435 5.04489 5.26049C5.21844 3.84888 5.8878 2.54483 6.93356 1.58091C7.97932 0.616995 9.33348 0.0559009 10.7545 -0.00229569C12.1756 -0.0604923 13.5711 0.387993 14.6922 1.26317C15.8132 2.13834 16.587 3.3833 16.8754 4.77599C16.3435 4.63487 15.7987 4.54744 15.2494 4.51499C14.9411 3.63385 14.3665 2.87034 13.6052 2.33016C12.8438 1.78999 11.9334 1.49988 10.9999 1.49999ZM14.7499 19.5C15.6363 19.5 16.5141 19.3254 17.333 18.9862C18.1519 18.647 18.8961 18.1497 19.5229 17.523C20.1497 16.8962 20.6469 16.152 20.9861 15.3331C21.3253 14.5141 21.4999 13.6364 21.4999 12.75C21.4999 11.8636 21.3253 10.9858 20.9861 10.1669C20.6469 9.34792 20.1497 8.60381 19.5229 7.97701C18.8961 7.35022 18.1519 6.85302 17.333 6.5138C16.5141 6.17458 15.6363 5.99999 14.7499 5.99999C12.9597 5.99999 11.2428 6.71114 9.97691 7.97701C8.71104 9.24288 7.99989 10.9598 7.99989 12.75C7.99989 14.5402 8.71104 16.2571 9.97691 17.523C11.2428 18.7888 12.9597 19.5 14.7499 19.5ZM18.4999 8.99998V11.25C18.4999 11.4489 18.4209 11.6397 18.2802 11.7803C18.1396 11.921 17.9488 12 17.7499 12H15.4999C15.301 12 15.1102 11.921 14.9696 11.7803C14.8289 11.6397 14.7499 11.4489 14.7499 11.25C14.7499 11.0511 14.8289 10.8603 14.9696 10.7197C15.1102 10.579 15.301 10.5 15.4999 10.5H16.2049C15.5714 10.1474 14.8314 10.0367 14.1224 10.1885C13.4135 10.3402 12.7836 10.744 12.3499 11.325C12.2908 11.4038 12.2168 11.4702 12.132 11.5203C12.0473 11.5705 11.9535 11.6035 11.856 11.6174C11.7585 11.6314 11.6592 11.626 11.5638 11.6015C11.4683 11.5771 11.3787 11.5341 11.2999 11.475C11.2211 11.4159 11.1547 11.3419 11.1045 11.2571C11.0543 11.1724 11.0214 11.0786 11.0074 10.9811C10.9935 10.8835 10.9989 10.7843 11.0233 10.6888C11.0478 10.5934 11.0908 10.5038 11.1499 10.425C11.8088 9.54323 12.7684 8.93397 13.8467 8.71278C14.925 8.49158 16.047 8.67384 16.9999 9.22498V8.99998C16.9999 8.80107 17.0789 8.61031 17.2196 8.46966C17.3602 8.329 17.551 8.24998 17.7499 8.24998C17.9488 8.24998 18.1396 8.329 18.2802 8.46966C18.4209 8.61031 18.4999 8.80107 18.4999 8.99998ZM11.7499 17.25C11.551 17.25 11.3602 17.171 11.2196 17.0303C11.0789 16.8897 10.9999 16.6989 10.9999 16.5V14.64C10.9997 14.63 10.9997 14.62 10.9999 14.61V14.25C10.9999 14.0511 11.0789 13.8603 11.2196 13.7197C11.3602 13.579 11.551 13.5 11.7499 13.5H13.9999C14.1988 13.5 14.3896 13.579 14.5302 13.7197C14.6709 13.8603 14.7499 14.0511 14.7499 14.25C14.7499 14.4489 14.6709 14.6397 14.5302 14.7803C14.3896 14.921 14.1988 15 13.9999 15H13.2949C13.9284 15.3525 14.6684 15.4632 15.3773 15.3115C16.0863 15.1598 16.7161 14.7559 17.1499 14.175C17.209 14.0962 17.283 14.0298 17.3678 13.9796C17.4525 13.9294 17.5463 13.8965 17.6438 13.8825C17.7413 13.8686 17.8406 13.874 17.936 13.8984C18.0314 13.9229 18.1211 13.9659 18.1999 14.025C18.2787 14.0841 18.3451 14.1581 18.3952 14.2429C18.4454 14.3276 18.4784 14.4214 18.4923 14.5189C18.5063 14.6164 18.5009 14.7157 18.4764 14.8111C18.452 14.9065 18.409 14.9962 18.3499 15.075C17.6908 15.9565 16.731 16.5655 15.6527 16.7864C14.5744 17.0073 13.4526 16.8248 12.4999 16.2735V16.5C12.4999 16.6989 12.4209 16.8897 12.2802 17.0303C12.1396 17.171 11.9488 17.25 11.7499 17.25Z"/>
</svg>
