<svg width="23" height="18" viewBox="0 0 23 18" fill="none" xmlns="http://www.w3.org/2000/svg">
<path d="M18 14.9999C18.9283 14.9999 19.8185 14.6312 20.4749 13.9748C21.1313 13.3184 21.5 12.4282 21.5 11.4999C21.5 10.5717 21.1313 9.68142 20.4749 9.02505C19.8185 8.36867 18.9283 7.99992 18 7.99992H17C17.397 6.23192 16.715 4.40692 15.212 3.21292C13.709 2.01992 11.612 1.63792 9.71201 2.21292C7.81201 2.78792 6.39701 4.23192 6.00001 5.99992C3.80101 5.91192 1.84501 7.32592 1.33401 9.37292C0.822007 11.4199 1.89801 13.5269 3.90001 14.3999" stroke="#00AC64" stroke-width="2" stroke-linecap="round" stroke-linejoin="round"/>
<path d="M9 12V10C9 9.46957 9.21071 8.96086 9.58579 8.58579C9.96086 8.21071 10.4696 8 11 8C11.5304 8 12.0391 8.21071 12.4142 8.58579C12.7893 8.96086 13 9.46957 13 10V12M7 13C7 12.7348 7.10536 12.4804 7.29289 12.2929C7.48043 12.1054 7.73478 12 8 12H14C14.2652 12 14.5196 12.1054 14.7071 12.2929C14.8946 12.4804 15 12.7348 15 13V16C15 16.2652 14.8946 16.5196 14.7071 16.7071C14.5196 16.8946 14.2652 17 14 17H8C7.73478 17 7.48043 16.8946 7.29289 16.7071C7.10536 16.5196 7 16.2652 7 16V13Z" stroke="#00AC64" stroke-width="2" stroke-linecap="round" stroke-linejoin="round"/>
</svg>
