<svg width="14" height="14" viewBox="0 0 14 14" fill="none" xmlns="http://www.w3.org/2000/svg">
<path d="M7.80926 7L11.9108 2.11094C11.9796 2.02969 11.9218 1.90625 11.8155 1.90625H10.5686C10.4952 1.90625 10.4249 1.93906 10.3764 1.99531L6.99363 6.02813L3.61082 1.99531C3.56394 1.93906 3.49363 1.90625 3.41863 1.90625H2.17176C2.06551 1.90625 2.00769 2.02969 2.07644 2.11094L6.17801 7L2.07644 11.8891C2.06104 11.9072 2.05116 11.9293 2.04798 11.9529C2.04479 11.9764 2.04843 12.0004 2.05846 12.022C2.0685 12.0435 2.08451 12.0617 2.10459 12.0745C2.12467 12.0872 2.14798 12.0939 2.17176 12.0938H3.41863C3.49207 12.0938 3.56238 12.0609 3.61082 12.0047L6.99363 7.97188L10.3764 12.0047C10.4233 12.0609 10.4936 12.0938 10.5686 12.0938H11.8155C11.9218 12.0938 11.9796 11.9703 11.9108 11.8891L7.80926 7Z" fill="#EC2028"/>
</svg>
