<svg xmlns="http://www.w3.org/2000/svg" width="48" height="48" viewBox="0 0 48 48" fill="none">
  <path d="M3 7.5V40.5H45V7.5H3ZM6 10.5H42V31.359L34.08 23.391L33 22.311L31.92 23.391L26.205 29.109L17.58 20.391L16.5 19.311L15.42 20.391L6 29.811V10.5ZM36 13.5C35.6005 13.491 35.2032 13.5618 34.8315 13.7085C34.4597 13.8551 34.121 14.0745 33.8352 14.3538C33.5495 14.6331 33.3224 14.9667 33.1673 15.335C33.0122 15.7033 32.9323 16.0989 32.9322 16.4985C32.9321 16.8981 33.0118 17.2937 33.1667 17.6621C33.3216 18.0304 33.5485 18.3641 33.8342 18.6436C34.1198 18.9231 34.4584 19.1427 34.8301 19.2895C35.2017 19.4363 35.599 19.5073 35.9985 19.4985C36.7823 19.4812 37.5283 19.1577 38.0766 18.5972C38.6249 18.0368 38.932 17.284 38.9322 16.5C38.9324 15.7159 38.6256 14.963 38.0776 14.4023C37.5296 13.8416 36.7838 13.5177 36 13.5ZM16.5 23.58L30.282 37.5H6V34.08L16.5 23.58ZM33 26.58L42 35.58V37.5H34.545L28.3125 31.218L33 26.58Z" fill="#FECC09"/>
</svg>