<svg xmlns="http://www.w3.org/2000/svg" width="16" height="16" viewBox="0 0 16 16" fill="none">
  <path d="M14.666 1.33301H5.3327V4.76634C4.44779 4.94721 3.6284 5.36441 2.96157 5.9736C2.29474 6.5828 1.80538 7.36125 1.54547 8.22625C1.28557 9.09125 1.26482 10.0105 1.48543 10.8863C1.70605 11.7622 2.15979 12.5619 2.79845 13.2006C3.43711 13.8393 4.23685 14.293 5.11269 14.5136C5.98854 14.7342 6.90779 14.7135 7.77279 14.4536C8.6378 14.1937 9.41624 13.7043 10.0254 13.0375C10.6346 12.3706 11.0518 11.5513 11.2327 10.6663H14.666V1.33301ZM11.322 9.33301C11.2413 8.12474 10.7248 6.98682 9.86851 6.13053C9.01222 5.27425 7.87431 4.75778 6.66604 4.67701V2.66634H13.3327V9.33301H11.322ZM6.3327 5.99967C7.30516 5.99967 8.23779 6.38598 8.92543 7.07362C9.61306 7.76125 9.99937 8.69388 9.99937 9.66634C9.99937 10.6388 9.61306 11.5714 8.92543 12.2591C8.23779 12.9467 7.30516 13.333 6.3327 13.333C5.36024 13.333 4.42761 12.9467 3.73998 12.2591C3.05234 11.5714 2.66604 10.6388 2.66604 9.66634C2.66604 8.69388 3.05234 7.76125 3.73998 7.07362C4.42761 6.38598 5.36024 5.99967 6.3327 5.99967Z" fill="#1F1F1F"/>
</svg>