<svg width="14" height="14" viewBox="0 0 14 14" fill="none" xmlns="http://www.w3.org/2000/svg">
<g clip-path="url(#clip0_1346_12262)">
<path d="M3.02632 10.748C3.05757 10.748 3.08882 10.7449 3.12007 10.7402L5.74819 10.2793C5.77944 10.273 5.80913 10.259 5.83101 10.2355L12.4544 3.61211C12.4689 3.59765 12.4804 3.58048 12.4883 3.56158C12.4961 3.54268 12.5001 3.52242 12.5001 3.50195C12.5001 3.48149 12.4961 3.46123 12.4883 3.44232C12.4804 3.42342 12.4689 3.40625 12.4544 3.3918L9.85757 0.793359C9.82788 0.763672 9.78882 0.748047 9.74663 0.748047C9.70444 0.748047 9.66538 0.763672 9.63569 0.793359L3.01226 7.4168C2.98882 7.44024 2.97476 7.46836 2.96851 7.49961L2.50757 10.1277C2.49237 10.2114 2.4978 10.2976 2.52339 10.3787C2.54898 10.4599 2.59397 10.5335 2.65444 10.5934C2.75757 10.6934 2.88726 10.748 3.02632 10.748ZM4.07944 8.02305L9.74663 2.35742L10.8919 3.50273L5.22476 9.16836L3.83569 9.41367L4.07944 8.02305ZM12.7498 12.0605H1.24976C0.973193 12.0605 0.749756 12.284 0.749756 12.5605V13.123C0.749756 13.1918 0.806006 13.248 0.874756 13.248H13.1248C13.1935 13.248 13.2498 13.1918 13.2498 13.123V12.5605C13.2498 12.284 13.0263 12.0605 12.7498 12.0605Z" fill="#1F1F1F"/>
</g>
<defs>
<clipPath id="clip0_1346_12262">
<rect width="14" height="14" fill="white"/>
</clipPath>
</defs>
</svg>
